<?xml version="1.0" encoding="UTF-8"?>
<svg id="Capa_1" data-name="Capa 1" xmlns="http://www.w3.org/2000/svg" version="1.1" viewBox="0 0 34.8 34.9">
  <defs>
    <style>
      .cls-1 {
        fill: #dd0a2c;
        stroke-width: 0px;
      }
    </style>
  </defs>
  <path class="cls-1" d="M0,27.2v-13.9c8.3-3.6,15.9-4.1,17.3-1,1.5,3.2-4.4,9.1-13.1,13.2-1.4.7-2.9,1.3-4.3,1.7M27.6,0h7.2v27.5c0,4-3.2,7.2-7.2,7.2H0v-2.8c3.7-.7,7.8-2,11.9-4,11.8-5.5,19.5-13.8,17.3-18.6-2.2-4.8-13.6-4.2-25.3,1.3-1.4.6-2.6,1.3-3.9,2v-5.5C0,3.1,3.2,0,7.2,0h20.3Z"/>
</svg>